<svg width="21" height="21" viewBox="0 0 21 21" fill="none" xmlns="http://www.w3.org/2000/svg">
<path d="M14.9015 6.09853C14.8153 6.01235 14.7069 5.95184 14.5883 5.92379C14.4698 5.89574 14.3457 5.90126 14.2301 5.93972L8.32388 7.90847C8.22714 7.94072 8.13925 7.99505 8.06715 8.06715C7.99505 8.13925 7.94072 8.22714 7.90847 8.32387L5.93972 14.2301C5.90116 14.3458 5.89556 14.4698 5.92356 14.5885C5.95155 14.7071 6.01204 14.8156 6.09822 14.9018C6.18441 14.988 6.2929 15.0484 6.41153 15.0764C6.53016 15.1044 6.65425 15.0988 6.76988 15.0603L12.6761 13.0915C12.7729 13.0593 12.8608 13.005 12.9329 12.9329C13.005 12.8608 13.0593 12.7729 13.0915 12.6761L15.0603 6.76987C15.0987 6.65426 15.1043 6.53022 15.0762 6.41165C15.0482 6.29308 14.9877 6.18466 14.9015 6.09853ZM7.60003 13.4006L9.05034 9.051L11.9503 11.951L7.60003 13.4006Z" fill="black"/>
<path d="M10.5 19.6875C8.68288 19.6875 6.90657 19.1487 5.39569 18.1391C3.88482 17.1296 2.70723 15.6947 2.01185 14.0159C1.31647 12.3371 1.13453 10.4898 1.48903 8.7076C1.84353 6.9254 2.71856 5.28835 4.00345 4.00345C5.28835 2.71856 6.9254 1.84353 8.7076 1.48903C10.4898 1.13453 12.3371 1.31647 14.0159 2.01185C15.6947 2.70723 17.1296 3.88482 18.1391 5.39569C19.1487 6.90657 19.6875 8.68288 19.6875 10.5C19.6847 12.9358 18.7159 15.2711 16.9935 16.9935C15.2711 18.7159 12.9358 19.6847 10.5 19.6875ZM10.5 2.625C8.94247 2.625 7.41992 3.08686 6.12488 3.95217C4.82984 4.81749 3.82049 6.0474 3.22445 7.48636C2.62841 8.92533 2.47245 10.5087 2.77631 12.0363C3.08017 13.5639 3.83019 14.9671 4.93153 16.0685C6.03287 17.1698 7.43606 17.9198 8.96366 18.2237C10.4913 18.5275 12.0747 18.3716 13.5136 17.7755C14.9526 17.1795 16.1825 16.1701 17.0478 14.8751C17.9131 13.5801 18.375 12.0575 18.375 10.5C18.3726 8.41216 17.5421 6.41054 16.0658 4.93422C14.5895 3.45789 12.5878 2.62743 10.5 2.625Z" fill="black"/>
</svg>
