<svg width="15" height="16" viewBox="0 0 15 16" fill="none" xmlns="http://www.w3.org/2000/svg">
<path d="M2.25 13.625H4.875V8.375H10.125V13.625H12.75V5.75L7.5 1.8125L2.25 5.75V13.625ZM2.25 15.375C1.76875 15.375 1.35692 15.2038 1.0145 14.8614C0.6715 14.5184 0.5 14.1062 0.5 13.625V5.75C0.5 5.47292 0.562125 5.21042 0.686375 4.9625C0.810042 4.71458 0.98125 4.51042 1.2 4.35L6.45 0.4125C6.61042 0.295833 6.77812 0.208333 6.95312 0.15C7.12813 0.0916666 7.31042 0.0625 7.5 0.0625C7.68958 0.0625 7.87187 0.0916666 8.04688 0.15C8.22188 0.208333 8.38958 0.295833 8.55 0.4125L13.8 4.35C14.0188 4.51042 14.1903 4.71458 14.3145 4.9625C14.4382 5.21042 14.5 5.47292 14.5 5.75V13.625C14.5 14.1062 14.3288 14.5184 13.9864 14.8614C13.6434 15.2038 13.2312 15.375 12.75 15.375H8.375V10.125H6.625V15.375H2.25Z" fill="black"/>
</svg>
