<svg width="16" height="18" viewBox="0 0 16 18" fill="none" xmlns="http://www.w3.org/2000/svg">
<path fill-rule="evenodd" clip-rule="evenodd" d="M1.9945 9.68125C2.54138 8.00125 3.52575 5.84963 5.28188 4.0935C8.72412 0.65125 13.7274 0.142875 13.8542 0.12975C14.0151 0.113621 14.1774 0.142168 14.3231 0.212251C14.4688 0.282335 14.5924 0.391242 14.6802 0.527C14.8622 0.800875 15.8877 2.52463 14.5131 4.60713C14.4412 4.71404 14.3604 4.81473 14.2716 4.90813C14.2832 5.01673 14.2743 5.12656 14.2454 5.23188C14.0791 5.83475 13.8656 6.46737 13.5891 7.1C13.107 8.20512 12.4271 9.3225 11.469 10.2815C9.67525 12.0753 7.31975 12.8986 5.4805 13.2828C4.64911 13.4561 3.80585 13.5667 2.95788 13.6135C2.93075 13.8287 2.6875 15.9988 2.6875 16.375C2.6875 16.6071 2.59531 16.8296 2.43122 16.9937C2.26712 17.1578 2.04456 17.25 1.8125 17.25C1.58044 17.25 1.35788 17.1578 1.19378 16.9937C1.02969 16.8296 0.9375 16.6071 0.9375 16.375C0.9375 15.8754 1.039 14.9138 1.13088 14.135C1.31025 12.6195 1.52113 11.1364 1.9945 9.68125ZM13.0519 3.64375C13.513 2.94375 13.5069 2.34875 13.415 1.96375C12.0789 2.20438 8.84837 3.0015 6.51912 5.33162C5.02812 6.82175 4.15663 8.69163 3.65875 10.2229C3.48565 10.7543 3.34135 11.2947 3.2265 11.8416C3.8636 11.7911 4.4969 11.7005 5.12262 11.5704C6.80263 11.2186 8.77838 10.4959 10.2309 9.04338C10.9746 8.29963 11.5294 7.4185 11.9406 6.5015C11.0866 6.9565 10.1749 7.36425 9.5265 7.58038C9.41745 7.61669 9.30232 7.63116 9.18768 7.62298C9.07304 7.61479 8.96113 7.58411 8.85835 7.53268C8.65077 7.42881 8.49296 7.24673 8.41962 7.0265C8.34629 6.80627 8.36345 6.56593 8.46732 6.35835C8.57119 6.15077 8.75327 5.99296 8.9735 5.91962C9.56325 5.72275 10.5118 5.29575 11.3832 4.81275C11.8155 4.573 12.211 4.32888 12.5216 4.10575C12.8576 3.86425 13.0116 3.70325 13.0519 3.64288V3.64375Z" fill="black"/>
</svg>
